<?xml version="1.0" standalone="no"?><!DOCTYPE svg PUBLIC "-//W3C//DTD SVG 1.1//EN" "http://www.w3.org/Graphics/SVG/1.1/DTD/svg11.dtd"><svg t="1662082311493" class="icon" viewBox="0 0 1024 1024" version="1.1" xmlns="http://www.w3.org/2000/svg" p-id="2047" xmlns:xlink="http://www.w3.org/1999/xlink" width="200" height="200"><path d="M204.8 639.6544V640c-28.2752 0-51.2 22.9248-51.2 51.182933L153.642667 759.466667c0 28.2752 22.920533 51.2 51.2 51.2H848.469333c-13.76-26.986667-20.740267-55.509333-20.740266-85.333334 0-29.7472 6.941867-58.1376 20.6336-84.949333L597.333333 640.234667V640h-0.042666a25.6 25.6 0 1 1 0.042666-51.2h251.140267c-13.76-26.986667-20.740267-55.509333-20.740267-85.333333 0-29.7472 6.941867-58.1376 20.6336-84.949334L597.333333 418.368V418.133333h-0.042666a25.6 25.6 0 1 1 0.042666-51.2h251.1232C834.705067 339.9424 827.733333 311.424 827.733333 281.6c0-29.7472 6.9376-58.1376 20.616534-84.949333L204.7872 196.266667h-0.029867c-28.2752 0-51.2 22.9248-51.2 51.182933L153.6 315.733333c0 28.2752 22.9248 51.2 51.2 51.2v0.3456a25.6 25.6 0 1 1 0 50.504534V418.133333c-28.2752 0-51.2 22.9248-51.2 51.182934L153.642667 537.6c0 28.2624 22.8992 51.178667 51.157333 51.2v0.3456a25.6 25.6 0 1 1 0 50.504533z m716.885333-25.045333c0.081067 5.700267-1.770667 11.562667-5.998933 16.618666C890.948267 660.8384 878.933333 691.925333 878.933333 725.333333c0 33.429333 12.036267 64.695467 36.821334 94.596267 13.824 16.686933 1.962667 41.937067-19.712 41.937067h-691.2c-56.554667 0-102.4-45.845333-102.4-102.382934L102.4 691.2c0-30.592 13.4144-58.052267 34.688-76.817067-21.248-18.760533-34.645333-46.203733-34.645333-76.765866L102.4 469.333333c0-30.583467 13.405867-58.0352 34.666667-76.8C115.805867 373.7728 102.4 346.325333 102.4 315.7504L102.357333 247.466667c0-56.554667 45.845333-102.4 102.4-102.4h0.059734l691.2 0.413866c21.704533 0.0128 33.544533 25.339733 19.6352 42.005334C890.939733 217.096533 878.933333 248.192 878.933333 281.6c0 33.4336 12.027733 64.704 36.7872 94.609067a25.224533 25.224533 0 0 1 5.9008 14.984533c0.4608 6.186667-1.322667 12.650667-5.930666 18.167467C890.944 438.971733 878.933333 470.058667 878.933333 503.466667c0 33.429333 12.036267 64.695467 36.821334 94.596266 4.177067 5.0432 6.007467 10.8672 5.930666 16.541867z m-585.813333 73.787733c-17.450667 15.837867-44.433067 14.528-60.266667-2.922667a42.666667 42.666667 0 0 1-11.072-28.672V349.866667c0-23.5648 19.101867-42.666667 42.666667-42.666667h187.733333c23.5648 0 42.666667 19.101867 42.666667 42.666667v306.935466c0 23.5648-19.101867 42.666667-42.666667 42.666667a42.666667 42.666667 0 0 1-28.672-11.072L401.066667 629.239467l-65.194667 59.157333zM315.733333 358.4v279.133867l56.661334-51.413334a42.666667 42.666667 0 0 1 57.344 0l56.661333 51.413334V358.4H315.733333z" p-id="2048"></path></svg>