<?xml version="1.0" standalone="no"?><!DOCTYPE svg PUBLIC "-//W3C//DTD SVG 1.1//EN" "http://www.w3.org/Graphics/SVG/1.1/DTD/svg11.dtd"><svg class="icon" width="200px" height="200.00px" viewBox="0 0 1024 1024" version="1.1" xmlns="http://www.w3.org/2000/svg"><path fill="#8a8a8a" d="M645.964084 507.153622l0-19.336394c0 0 66.946738-127.511115 66.946738-222.369553 0-82.202187-32.81743-203.054649-191.34291-203.054649-158.570505 0-200.924125 112.800066-200.924125 203.054649 0 97.165993 66.985624 222.369553 66.985624 222.369553s0 19.215644 0 19.336394c-203.736171 59.031465-325.237409 224.797859-325.237409 290.090934 0-0.428765 0 77.345576 0 77.345576s-0.807389 28.213575 28.686343 57.987692c29.531594 29.839609 95.665827 29.027104 95.665827 29.027104l334.823742 0 306.104653 0c0 0 77.131705-0.593518 105.213273-29.027104 28.131711-28.378327 28.724205-57.987692 28.724205-57.987692s0-76.840062 0-77.345576C961.610044 724.326826 835.730079 566.393841 645.964084 507.153622zM904.210753 845.564052c0 78.247108-125.929084 58.041928-220.061998 58.041928L339.859431 903.605979c-94.133937 0-220.061998 20.204158-220.061998-58.041928l0-48.319495c40.782845-90.26584 231.104495-240.179175 325.237409-251.396657l0-77.379345c-42.617633-46.023196-66.99074-126.313847-66.99074-203.021903 0-113.909329 65.496713-145.056724 143.523811-145.056724s133.938502 31.147394 133.938502 145.056724c0 76.665077-24.37413 156.998707-66.985624 203.021903l0 77.379345c92.726891 23.061228 276.907681 165.568896 315.689962 251.396657L904.210753 845.564052z" /></svg>